:version 1.10
:name ASF
:units
  mass 1
  length 1
  angle deg
:documentation
  ASF file generated by Kaydara
:root
  axis xyz
  order  tx ty tz rx ry rz
  position 0 0 0
  orientation 0 0 0
:bonedata
  begin
    id 1
    name SpineDummy
    direction 0.999998 -0.00179978 1.38929e-006
    length 3.60008
    axis 0 0 0 xyz
  end
  begin
    id 2
    name Spine
    direction 0.964365 0.262802 0.0305839
    length 8.13928
    axis 1.33928 -1.75354 15.2838 xyz
    dof rx ry rz
  end
  begin
    id 3
    name Spine1
    direction 0.811168 0.572065 0.12144
    length 7.14954
    axis 2.2224 -6.9761 35.2157 xyz
    dof rx ry rz
  end
  begin
    id 4
    name Neck
    direction 0 0 0
    length 0
    axis 2.2224 -6.9761 35.2157 xyz
    dof rx ry rz
  end
  begin
    id 5
    name HeadDummy
    direction 0.810939 0.572387 0.121455
    length 3.55534
    axis 2.2224 -6.9761 35.2157 xyz
  end
  begin
    id 6
    name Head
    direction 0.998226 -0.000232542 0.0595419
    length 7.35666
    axis -3.03688 -3.41352 -0.0133467 xyz
    dof rx ry rz
  end
  begin
    id 7
    name R_ClavicleDummy
    direction 0.531669 -0.194489 -0.824319
    length 2.49392
    axis 2.2224 -6.9761 35.2157 xyz
  end
  begin
    id 8
    name R_Clavicle
    direction -0.155119 0.0480802 -0.986725
    length 4.485
    axis -54.2764 80.6538 162.779 xyz
    dof rx ry rz
  end
  begin
    id 9
    name R_UpperArm
    direction -0.955567 0.200068 -0.216484
    length 10.1122
    axis -72.9943 12.5026 168.175 xyz
    dof rx ry rz
  end
  begin
    id 10
    name R_Forearm
    direction -0.61433 0.385743 0.688332
    length 9.39148
    axis -117.015 -43.4982 147.875 xyz
    dof rx ry rz
  end
  begin
    id 11
    name R_Hand
    direction -0.699429 0.0170333 0.714499
    length 3.66324
    axis -45.0303 -36.7097 175.478 xyz
    dof rx ry rz
  end
  begin
    id 12
    name L_ClavicleDummy
    direction 0.40287 -0.36502 0.839319
    length 2.49392
    axis 2.2224 -6.9761 35.2157 xyz
  end
  begin
    id 13
    name L_Clavicle
    direction -0.231271 -0.0726419 0.970174
    length 4.485
    axis 18.4357 -75.9711 -162.563 xyz
    dof rx ry rz
  end
  begin
    id 14
    name L_UpperArm
    direction -0.917494 0.144359 0.370629
    length 10.1122
    axis 56.0417 -21.7544 171.058 xyz
    dof rx ry rz
  end
  begin
    id 15
    name L_Forearm
    direction -0.496786 0.615074 -0.612281
    length 9.39148
    axis 89.8094 37.7546 128.927 xyz
    dof rx ry rz
  end
  begin
    id 16
    name L_Hand
    direction -0.409932 0.64962 -0.640274
    length 3.66324
    axis -0.424369 32.133 128.52 xyz
    dof rx ry rz
  end
  begin
    id 17
    name L_ThighDummy
    direction -1.84081e-006 1.87549e-006 1
    length 3.13049
    axis 0 0 0 xyz
  end
  begin
    id 18
    name L_Thigh
    direction -0.947739 0.307978 0.083308
    length 17.9961
    axis 173.219 -4.77873 161.998 xyz
    dof rx ry rz
  end
  begin
    id 19
    name L_Calf
    direction -0.728814 -0.684427 0.0197583
    length 13.3367
    axis 167.331 -1.13214 -136.799 xyz
    dof rx ry rz
  end
  begin
    id 20
    name L_Foot
    direction -0.9028 0.418719 0.0981191
    length 5.8674
    axis 163.436 11.5135 -155.37 xyz
    dof rx ry rz
  end
  begin
    id 21
    name L_Toe0
    direction -0.35341 0.886259 0.299411
    length 4.75286
    axis 169.316 -17.4222 111.74 xyz
    dof rx ry rz
  end
  begin
    id 22
    name R_ThighDummy
    direction 9.32778e-007 -8.82053e-007 -1
    length 3.13049
    axis 0 0 0 xyz
  end
  begin
    id 23
    name R_Thigh
    direction -0.925064 0.37528 -0.0585023
    length 17.9961
    axis -178.698 3.35385 157.919 xyz
    dof rx ry rz
  end
  begin
    id 24
    name R_Calf
    direction -0.68969 -0.718776 -0.0876886
    length 13.3367
    axis -160.504 5.03065 -133.817 xyz
    dof rx ry rz
  end
  begin
    id 25
    name R_Foot
    direction -0.857405 0.418858 -0.299022
    length 5.8674
    axis -161.328 4.38911 -154.413 xyz
    dof rx ry rz
  end
  begin
    id 26
    name R_Toe0
    direction -0.100745 0.952789 -0.286433
    length 4.75286
    axis 171.683 16.6445 96.0359 xyz
    dof rx ry rz
  end
:hierarchy
  begin
    root SpineDummy L_ThighDummy R_ThighDummy
    SpineDummy Spine
    Spine Spine1
    Spine1 Neck
    Neck HeadDummy R_ClavicleDummy L_ClavicleDummy
    HeadDummy Head
    R_ClavicleDummy R_Clavicle
    R_Clavicle R_UpperArm
    R_UpperArm R_Forearm
    R_Forearm R_Hand
    L_ClavicleDummy L_Clavicle
    L_Clavicle L_UpperArm
    L_UpperArm L_Forearm
    L_Forearm L_Hand
    L_ThighDummy L_Thigh
    L_Thigh L_Calf
    L_Calf L_Foot
    L_Foot L_Toe0
    R_ThighDummy R_Thigh
    R_Thigh R_Calf
    R_Calf R_Foot
    R_Foot R_Toe0
  end

:SAMPLES-PER-SECOND 30
:FULLY-SPECIFIED
:DEGREES
344
root  12.4229 31.1373 -57.9723 99.5959 5.73633 95.311
Spine  -8.76602 -15.2721 -5.1339
Spine1  -6.59841 27.0536 2.0569
Neck  3.97569e-016 0 -2.38542e-015
Head  16.5508 -7.56038 27.6454
R_Clavicle  0.553404 -11.4454 3.48542
R_UpperArm  30.0258 6.76528 47.8765
R_Forearm  22.9014 -30.1078 21.4564
R_Hand  -0.384543 8.04763 -14.1598
L_Clavicle  -0.305797 11.8967 -0.75565
L_UpperArm  -18.8332 -12.0442 16.0022
L_Forearm  -2.73874 33.7532 39.0912
L_Hand  -0.174705 -1.60267 -5.1037
L_Thigh  -23.2872 4.3137 -25.6101
L_Calf  -5.33783 -4.04634 22.0712
L_Foot  2.97574 -1.61324 17.2485
L_Toe0  0.519859 0.0349691 -6.28431
R_Thigh  4.02516 -6.32959 4.4636
R_Calf  -6.33542 6.18713 19.8826
R_Foot  0.547693 -0.521047 -5.90662
R_Toe0  -1.78854 -0.272693 -17.3236
345
root  12.0992 30.9855 -57.0727 97.9337 6.09425 94.1013
Spine  -8.60198 -15.086 -5.01746
Spine1  -5.6211 29.5111 4.61647
Neck  3.97569e-016 0 -2.38542e-015
Head  17.1872 -8.22362 25.6172
R_Clavicle  0.522756 -12.66 3.30138
R_UpperArm  30.627 6.67936 46.0783
R_Forearm  24.8777 -27.8359 21.4145
R_Hand  -0.509264 8.3042 -15.23
L_Clavicle  -0.287779 11.8432 -1.19332
L_UpperArm  -21.9218 -8.33359 16.8624
L_Forearm  -2.83285 34.1717 39.9144
L_Hand  -0.188534 -2.10096 -6.37533
L_Thigh  -21.3758 4.98219 -26.5399
L_Calf  -8.9462 -2.73468 21.6174
L_Foot  1.38667 -5.17181 16.4623
L_Toe0  0.482301 0.00437685 -5.05285
R_Thigh  3.16762 -3.64071 3.87785
R_Calf  -6.00449 5.3979 17.2883
R_Foot  0.195692 -0.424545 -2.69294
R_Toe0  -1.78855 -0.272601 -17.3237
346
root  11.6893 30.9545 -56.1171 96.5686 5.84049 92.6195
Spine  -8.28522 -13.9016 -5.70175
Spine1  -4.72313 30.7409 6.69555
Neck  3.97569e-016 0 -2.38542e-015
Head  17.1187 -8.4769 24.9105
R_Clavicle  0.466884 -14.4477 2.77309
R_UpperArm  29.8795 5.15965 44.3585
R_Forearm  27.3759 -24.8167 20.9158
R_Hand  -0.629124 8.15044 -16.0883
L_Clavicle  -0.259742 11.6098 -1.66695
L_UpperArm  -21.8397 -3.73673 17.4938
L_Forearm  -3.59754 34.8672 40.2525
L_Hand  -0.203672 -1.60572 -5.89523
L_Thigh  -17.9998 7.29402 -24.4972
L_Calf  -11.4703 -2.14437 15.8507
L_Foot  -0.536828 -8.15666 11.328
L_Toe0  -0.803834 0.138968 2.46081
R_Thigh  2.10523 -0.481842 3.18494
R_Calf  -4.22164 5.04736 16.2006
R_Foot  0.0219231 -0.133039 -0.519214
R_Toe0  -1.78856 -0.27249 -17.3239
347
root  11.2297 30.8553 -55.1558 95.6031 5.25079 91.1208
Spine  -8.04478 -12.5274 -5.74831
Spine1  -4.31572 31.9364 6.97458
Neck  3.97569e-016 0 -2.38542e-015
Head  16.7356 -8.76196 24.7428
R_Clavicle  0.431687 -16.4112 2.31875
R_UpperArm  27.8713 3.79431 42.7805
R_Forearm  28.4576 -21.4923 19.1811
R_Hand  -0.606076 7.7446 -15.7736
L_Clavicle  -0.26713 12.0809 -2.04327
L_UpperArm  -19.3508 1.21676 18.5482
L_Forearm  -3.3195 34.9558 39.7519
L_Hand  -0.177012 -0.499981 -3.98017
L_Thigh  -14.3439 10.2976 -19.9998
L_Calf  -12.3711 -0.867389 6.30542
L_Foot  -1.13542 -6.28076 3.63096
L_Toe0  -7.34337 1.86266 9.72403
R_Thigh  1.80037 2.44264 2.79942
R_Calf  -2.86772 4.5846 14.7765
R_Foot  -0.226496 0.0253033 2.02126
R_Toe0  -1.78858 -0.272367 -17.324
348
root  10.7885 30.5741 -54.2235 94.7403 5.04352 89.7367
Spine  -7.80659 -11.197 -4.68666
Spine1  -4.04213 33.2679 6.43376
Neck  3.97569e-016 0 -2.38542e-015
Head  16.6643 -9.23658 23.5258
R_Clavicle  0.417336 -17.9039 2.01893
R_UpperArm  25.5067 3.629 40.3877
R_Forearm  27.0775 -18.457 16.0748
R_Hand  -0.54542 7.41059 -15.1601
L_Clavicle  -0.315237 13.2819 -2.38711
L_UpperArm  -15.6166 6.47174 20.0295
L_Forearm  -2.30375 33.6979 38.5994
L_Hand  -0.135792 0.389238 -2.58333
L_Thigh  -9.26467 11.8214 -14.7825
L_Calf  -12.8619 0.473551 -3.52183
L_Foot  0.379031 5.0538 -3.39142
L_Toe0  -18.604 6.33874 11.2885
R_Thigh  2.47862 4.86289 2.49142
R_Calf  -2.63026 3.76257 12.2055
R_Foot  -0.645351 -0.0435075 5.40659
R_Toe0  -1.78859 -0.272238 -17.3242
349
root  10.4076 30.2584 -53.2472 93.5448 5.50932 88.8543
Spine  -7.3424 -9.96436 -4.0134
Spine1  -3.2271 33.4656 7.3216
Neck  3.97569e-016 0 -2.38542e-015
Head  16.8355 -9.53904 21.1011
R_Clavicle  0.406574 -18.3728 1.6998
R_UpperArm  21.1029 4.21293 36.0862
R_Forearm  25.3124 -15.5664 13.3545
R_Hand  -0.635857 7.23691 -15.8244
L_Clavicle  -0.382335 14.6785 -2.66776
L_UpperArm  -12.0509 11.3 21.0393
L_Forearm  -0.570642 32.5208 37.7301
L_Hand  -0.133217 0.681852 -2.38474
L_Thigh  -3.80058 11.5559 -11.0475
L_Calf  -7.29959 1.35162 -10.2694
L_Foot  0.91748 14.0083 -7.99804
L_Toe0  -20.3598 9.14268 16.1551
R_Thigh  2.60887 6.87408 1.45096
R_Calf  -2.19698 2.91112 9.55622
R_Foot  -0.989249 0.127248 8.82003
R_Toe0  -1.78861 -0.27211 -17.3243
350
root  10.08 30.134 -52.1463 91.9956 6.20272 88.7529
Spine  -6.54443 -8.80314 -4.93408
Spine1  -1.9746 31.627 9.59156
Neck  3.97569e-016 0 -2.38542e-015
Head  16.5417 -9.51632 19.1034
R_Clavicle  0.393774 -17.9872 1.41623
R_UpperArm  15.866 4.68481 30.1914
R_Forearm  23.0434 -13.5776 11.5468
R_Hand  -0.829966 7.35014 -17.4448
L_Clavicle  -0.456809 16.0726 -2.77907
L_UpperArm  -10.0264 14.7582 21.17
L_Forearm  3.03983 33.478 37.7468
L_Hand  -0.126768 0.781275 -2.22269
L_Thigh  0.182669 10.1401 -8.50439
L_Calf  -1.42987 2.0243 -15.2949
L_Foot  1.94881 13.5661 -4.23099
L_Toe0  -15.0481 4.44518 10.433
R_Thigh  0.827893 8.59248 -0.803551
R_Calf  -0.779157 2.49364 8.25925
R_Foot  -1.04409 0.790544 11.4699
R_Toe0  -1.78862 -0.271992 -17.3244
351
root  9.80416 30.2245 -50.9838 90.526 6.61469 89.1678
Spine  -5.44415 -7.28431 -6.67352
Spine1  -1.07521 28.2065 10.8395
Neck  3.97569e-016 0 -2.38542e-015
Head  15.4208 -9.51633 18.8549
R_Clavicle  0.38874 -17.427 1.38905
R_UpperArm  10.7103 4.79468 24.2303
R_Forearm  19.8357 -12.5045 10.5893
R_Hand  -0.923433 7.62404 -18.2655
L_Clavicle  -0.530825 17.4155 -2.83477
L_UpperArm  -10.5915 17.2563 21.1897
L_Forearm  9.25654 36.3683 38.6051
L_Hand  -0.0636484 1.15945 -1.00102
L_Thigh  1.4995 8.29867 -5.96261
L_Calf  1.4407 2.18728 -16.5303
L_Foot  2.41098 10.9773 -0.929046
L_Toe0  -10.0069 2.44654 7.99206
R_Thigh  -1.93611 9.7546 -3.83536
R_Calf  0.681258 2.58797 8.55044
R_Foot  -1.00962 1.39774 13.3579
R_Toe0  -1.78863 -0.271889 -17.3246
352
root  9.57824 30.5156 -49.8489 89.5344 6.70397 89.75
Spine  -4.15947 -5.14034 -7.91034
Spine1  -0.754845 24.024 9.82412
Neck  3.97569e-016 0 -2.38542e-015
Head  13.6274 -9.70818 20.13
R_Clavicle  0.394604 -16.97 1.5746
R_UpperArm  6.66749 4.54855 19.4069
R_Forearm  16.0479 -11.9007 10.0552
R_Hand  -0.887024 7.7188 -18.0001
L_Clavicle  -0.584274 18.282 -3.08817
L_UpperArm  -13.0272 20.0046 21.9882
L_Forearm  16.0227 38.9821 39.8983
L_Hand  0.0470834 1.64034 0.82154
L_Thigh  0.669753 6.21579 -3.00238
L_Calf  0.038727 1.90592 -14.4082
L_Foot  2.63582 10.3612 0.344485
L_Toe0  -8.4647 2.14577 8.53406
R_Thigh  -3.67139 9.85574 -7.28366
R_Calf  1.08827 3.24139 10.5909
R_Foot  -1.22709 1.17174 14.4441
R_Toe0  -1.78864 -0.27181 -17.3246
353
root  9.37487 30.9912 -48.7423 89.0474 6.5822 90.3257
Spine  -2.77962 -2.42407 -8.7236
Spine1  -0.53709 19.2708 7.75703
Neck  3.97569e-016 0 -2.38542e-015
Head  11.1913 -9.77167 22.1244
R_Clavicle  0.400925 -16.4149 1.74662
R_UpperArm  4.39962 3.98426 15.917
R_Forearm  13.9226 -11.5447 9.74167
R_Hand  -0.89482 7.74448 -18.0501
L_Clavicle  -0.600866 18.4046 -3.51093
L_UpperArm  -14.8459 22.9236 23.6798
L_Forearm  19.5884 40.0337 40.8347
L_Hand  0.127776 1.80949 2.05568
L_Thigh  -1.01657 4.06363 -0.186743
L_Calf  -2.12917 1.19114 -9.09938
L_Foot  2.76558 10.3281 0.824586
L_Toe0  -8.07282 2.03678 8.66215
R_Thigh  -3.72941 9.00344 -11.0711
R_Calf  0.542796 4.48943 14.5424
R_Foot  -1.71194 0.0647004 14.5204
R_Toe0  -1.78864 -0.271761 -17.3247
354
root  9.16175 31.5299 -47.6255 88.7239 6.11799 90.7785
Spine  -1.29386 0.759378 -9.96751
Spine1  0.0108187 13.8638 6.0689
Neck  3.97569e-016 0 -2.38542e-015
Head  8.03772 -9.34107 24.4589
R_Clavicle  0.407881 -15.7887 1.90326
R_UpperArm  3.63282 3.40062 13.3914
R_Forearm  15.251 -11.7073 9.88434
R_Hand  -0.990471 7.86522 -18.8077
L_Clavicle  -0.590256 18.1526 -3.76531
L_UpperArm  -15.1293 24.8652 25.918
L_Forearm  19.4656 40.254 41.1975
L_Hand  0.146982 1.74753 2.373
L_Thigh  -3.28184 2.2277 2.03587
L_Calf  -2.38115 0.0646403 -0.865119
L_Foot  2.29577 8.51416 0.74888
L_Toe0  -3.13649 0.628083 4.80869
R_Thigh  -3.13401 7.99332 -14.9222
R_Calf  -0.220113 6.11474 19.8118
R_Foot  -2.25226 -1.4258 13.7968
R_Toe0  -1.78864 -0.27175 -17.3246
